<?xml version="1.0" encoding="UTF-8"?>
<svg width="157.74" height="120" version="1.1" viewBox="0 0 210 158.75" xmlns="http://www.w3.org/2000/svg">
<g transform="translate(-.017392 -78.054)">
<path d="m38.206 82.169c-0.34692 0.01336-0.63761 0.06988-0.86765 0.17208-3.9418 1.7513-5.5053 23.764-4.6979 41.881-1.1666 1.3254-2.2288 2.6804-3.1962 4.0582l-22.638-14.155-3.746 5.9903c7.6083 4.7579 15.216 9.5138 22.822 14.27-1.633 3.4866-2.6626 7.0782-3.0623 10.714h-22.82v7.0647h22.838c0.41657 3.5939 1.4406 7.098 3.0158 10.468l-22.794 14.252 3.746 5.9903 22.604-14.134c10.296 14.671 31.511 25.931 58.071 29.504 11.435 1.535 23.329 1.493 34.771-0.02222l41.73 35.58-7.0554-45.782c10.259-5.1534 18.396-11.779 23.666-19.299l22.635 14.153 3.746-5.9903-22.83-14.275c1.5883-3.4045 2.6171-6.9445 3.0231-10.577h22.867v-7.0668h-22.863c-0.40479-3.5882-1.4218-7.1328-3.0293-10.576l22.832-14.276-3.746-5.9903-22.64 14.156c-0.96645-1.3796-2.0288-2.7365-3.1946-4.0638 0.80684-18.116-0.75651-40.125-4.6979-41.876-3.5912-1.5955-21.911 7.9645-39.874 18.245-8.9258-1.9808-18.338-2.9941-27.822-2.9952-9.4741 0.0015-18.877 1.0132-27.795 2.9905-16.426-9.4006-33.149-18.198-38.633-18.411-0.12805-0.004993-0.24972-0.005533-0.36535-0.001033zm101.14 42.248c7.7059 3.8e-4 13.953 10.783 13.953 24.083-2e-5 13.3-6.2469 24.082-13.953 24.083-7.706 1.2e-4 -13.953-10.782-13.953-24.083-1.4e-4 -13.301 6.247-24.083 13.953-24.083zm-68.728 0.13229c7.7061-1.2e-4 13.953 10.783 13.953 24.083-2.4e-5 13.3-6.2472 24.083-13.953 24.083-7.706 1.2e-4 -13.953-10.782-13.953-24.083-1.45e-4 -13.301 6.2471-24.083 13.953-24.083zm34.265 51.713a1.6425 1.6425 0 0 1 0.1111 5.2e-4 1.6425 1.6425 0 0 1 0.12041 0.00103 1.6425 1.6425 0 0 1 1.4102 1.0149c0.85305 2.0854 2.6702 3.8649 4.7434 4.3005 2.9696 0.58956 6.1482-0.82944 8.9705-2.7089a1.6425 1.6425 0 0 1 2.2774 0.45734 1.6425 1.6425 0 0 1-0.4563 2.2769c-3.1146 2.0741-7.1018 4.0616-11.44 3.1962a1.6427 1.6427 0 0 1-0.01446-0.0031c-2.3266-0.48502-4.2448-1.8673-5.611-3.6458-1.3662 1.7783-3.2841 3.1608-5.6105 3.6458a1.6427 1.6427 0 0 1-0.014469 0.0031c-4.3384 0.86541-8.3256-1.1221-11.44-3.1962a1.6425 1.6425 0 0 1-0.4563-2.2769 1.6425 1.6425 0 0 1 2.2769-0.45734c2.8223 1.8794 6.0015 3.2984 8.971 2.7089 2.0732-0.43563 3.8903-2.2151 4.7434-4.3005a1.6425 1.6425 0 0 1 1.4102-1.0149 1.6425 1.6425 0 0 1 0.00879-0.00155z" stroke="#000" stroke-linecap="round" stroke-linejoin="round" style="paint-order:normal"/>
</g>
</svg>