<?xml version="1.0" encoding="UTF-8" standalone="no"?>
<!-- Created with Inkscape (http://www.inkscape.org/) -->

<svg
   width="405mm"
   height="138mm"
   viewBox="0 0 405 138"
   version="1.1"
   id="svg1"
   inkscape:version="1.3 (0e150ed6c4, 2023-07-21)"
   sodipodi:docname="catspeakreference.svg"
   xmlns:inkscape="http://www.inkscape.org/namespaces/inkscape"
   xmlns:sodipodi="http://sodipodi.sourceforge.net/DTD/sodipodi-0.dtd"
   xmlns="http://www.w3.org/2000/svg"
   xmlns:svg="http://www.w3.org/2000/svg">
  <sodipodi:namedview
     id="namedview1"
     pagecolor="#ffffff"
     bordercolor="#000000"
     borderopacity="0.25"
     inkscape:showpageshadow="2"
     inkscape:pageopacity="0.0"
     inkscape:pagecheckerboard="0"
     inkscape:deskcolor="#d1d1d1"
     inkscape:document-units="mm"
     showguides="false"
     inkscape:zoom="1.4574355"
     inkscape:cx="825.07938"
     inkscape:cy="425.40476"
     inkscape:window-width="1920"
     inkscape:window-height="1017"
     inkscape:window-x="1920"
     inkscape:window-y="26"
     inkscape:window-maximized="1"
     inkscape:current-layer="layer1" />
  <defs
     id="defs1">
    <rect
       x="119.02344"
       y="244.84074"
       width="74.387619"
       height="81.822975"
       id="rect3" />
    <rect
       x="119.02328"
       y="193.14749"
       width="1512.7087"
       height="583.0412"
       id="rect2" />
    <rect
       x="97.736961"
       y="173.7534"
       width="434.44785"
       height="424.32196"
       id="rect1" />
  </defs>
  <g
     inkscape:label="Camada 1"
     inkscape:groupmode="layer"
     id="layer1">
    <path
       style="font-weight:bold;font-size:61.3333px;line-height:1;font-family:'Ubuntu Mono';-inkscape-font-specification:'Ubuntu Mono Bold';white-space:pre;fill:#526666;fill-opacity:1"
       d="m 548.8472,246.2442 h 29.68532 v 6.56267 H 548.8472 Z m 919.9995,0 h 29.6854 v 6.56267 h -29.6854 z m -939.5648,14.90399 h 7.60533 v 52.99198 h -7.60533 z m 61.33329,0 h 7.60533 v 52.99198 h -7.60533 z m 858.66621,0 h 7.6054 v 52.99198 h -7.6054 z m 61.3333,0 h 7.6053 v 52.99198 h -7.6053 z m -1349.33262,61.3333 h 7.60533 v 52.99197 h -7.60533 z m 22.07999,0 h 7.728 l 17.17332,52.99197 h -7.78933 z m 28.15199,46.42931 h 29.68532 v 6.56266 h -29.68532 z m 40.90931,6.56266 h -7.85066 l 17.17332,-52.99197 h 7.728 z m 31.52531,-52.99197 h 7.60533 v 52.99197 h -7.60533 z m 80.89863,46.42931 h 29.68532 v 6.56266 h -29.68532 z m 30.66664,0 h 29.68532 v 6.56266 h -29.68532 z m 61.33331,0 h 29.68532 v 6.56266 h -29.68532 z m 72.43464,-46.42931 h 7.60533 v 52.99197 h -7.60533 z m 61.33329,0 h 7.60533 v 52.99197 h -7.60533 z m 19.56533,46.42931 h 29.68531 v 6.56266 h -29.68531 z m 91.99997,0 h 29.68531 v 6.56266 h -29.68531 z m 30.66662,0 h 29.68532 v 6.56266 h -29.68532 z m 30.66669,0 h 29.68532 v 6.56266 H 763.5138 Z m 91.99994,0 h 29.68532 v 6.56266 h -29.68532 z m 61.33331,0 h 29.68532 v 6.56266 h -29.68532 z m 30.66663,0 h 29.68531 v 6.56266 h -29.68531 z m 153.33322,0 h 29.6853 v 6.56266 h -29.6853 z m 30.6667,0 h 29.6853 v 6.56266 h -29.6853 z m 30.6666,0 h 29.6854 v 6.56266 h -29.6854 z m 122.6667,0 h 29.6853 v 6.56266 h -29.6853 z m 30.6666,0 h 29.6853 v 6.56266 h -29.6853 z m 61.3332,0 h 29.6854 v 6.56266 h -29.6854 z m 72.4347,-46.42931 h 7.6054 v 52.99197 h -7.6054 z m 61.3333,0 h 7.6053 v 52.99197 h -7.6053 z m 50.232,46.42931 h 29.6854 v 6.56266 h -29.6854 z m 30.6667,0 h 29.6853 v 6.56266 h -29.6853 z M 160.42342,436.80678 h -7.85067 l 17.17333,-52.99198 h 7.72799 z m 51.09064,-6.56267 h 29.68532 v 6.56267 h -29.68532 z m 30.66665,0 h 29.68531 v 6.56267 h -29.68531 z m 41.76797,-46.42931 h 7.60533 v 52.99198 h -7.60533 z m 60.47463,52.99198 h -7.85066 l 17.17333,-52.99198 h 7.72799 z m 51.09064,-6.56267 h 29.68532 v 6.56267 h -29.68532 z m 43.23998,-45.93864 9.69067,6.808 -2.76,4.10933 -10.672,-5.152 z m 59.86132,-0.49067 h 7.60533 v 52.99198 h -7.60533 z m 30.66665,0 h 7.60533 v 52.99198 h -7.60533 z m 50.23196,46.42931 h 29.68532 v 6.56267 h -29.68532 z m 30.66666,0 h 29.68531 v 6.56267 H 610.18052 Z M 651.9485,383.8148 h 7.60533 v 52.99198 h -7.60533 z m 29.80796,52.99198 h -7.85066 l 17.17332,-52.99198 h 7.728 z m 51.09065,-6.56267 h 29.68532 v 6.56267 h -29.68532 z m 30.66669,0 h 29.68532 v 6.56267 H 763.5138 Z m 41.76795,-46.42931 h 7.60533 v 52.99198 h -7.60533 z m 30.66663,0 h 7.60533 v 52.99198 h -7.60533 z m 69.18397,1.22667 v 4.048 c 0,1.02222 -0.0613,2.14666 -0.184,3.37333 -0.0818,1.18578 -0.22488,2.41245 -0.42933,3.68 -0.16355,1.26755 -0.34755,2.53511 -0.552,3.80266 -0.20445,1.22667 -0.40889,2.37156 -0.61333,3.43467 h -4.416 c -0.20445,-1.06311 -0.40889,-2.208 -0.61333,-3.43467 l -0.61334,-3.80266 c -0.16355,-1.26755 -0.30666,-2.49422 -0.42933,-3.68 -0.12267,-1.22667 -0.184,-2.35111 -0.184,-3.37333 v -4.048 z m 11.7147,45.20264 h 29.68532 v 6.56267 h -29.68532 z m 63.84792,-46.42931 h 7.72799 l 17.17334,52.99198 h -7.78934 z m 99.72803,52.99198 h -7.8507 l 17.1733,-52.99198 h 7.728 z m 51.0906,-6.56267 h 29.6853 v 6.56267 h -29.6853 z m 63.8479,-46.42931 h 7.728 l 17.1734,52.99198 h -7.7894 z m 69.0614,52.99198 h -7.8507 l 17.1734,-52.99198 h 7.728 z m 51.0906,-6.56267 h 29.6853 v 6.56267 h -29.6853 z m 43.2399,-45.93864 9.6907,6.808 -2.76,4.10933 -10.672,-5.152 z m 59.8614,-0.49067 h 7.6054 v 52.99198 h -7.6054 z m 30.6666,0 h 7.6054 v 52.99198 h -7.6054 z m 61.3333,0 h 7.6053 v 52.99198 h -7.6053 z m 29.808,52.99198 h -7.8507 l 17.1733,-52.99198 h 7.728 z m 61.3333,0 h -7.8506 l 17.1733,-52.99198 h 7.728 z m -1471.14057,8.34134 h 7.60533 v 52.99197 h -7.60533 z m 62.49864,26.55732 c 0,5.02933 1.104,9.40443 3.31199,13.12532 2.24889,3.68 5.336,6.66489 9.26133,8.95467 l -3.496,4.66133 c -5.56088,-3.06667 -9.62932,-6.88978 -12.20532,-11.46933 -2.576,-4.57955 -3.864,-9.67022 -3.864,-15.27199 0,-5.64267 1.32889,-10.81511 3.98666,-15.51733 2.65778,-4.74311 6.76711,-8.64799 12.328,-11.71466 l 3.496,4.66133 c -3.92533,2.28978 -7.05333,5.35645 -9.384,9.2 -2.28977,3.84355 -3.43466,8.30044 -3.43466,13.37066 z m 18.39999,19.87199 h 29.68532 v 6.56266 h -29.68532 z m 30.66665,0 h 29.68531 v 6.56266 h -29.68531 z m 72.43463,-46.42931 h 7.60533 v 52.99197 h -7.60533 z m 62.49863,26.55732 c 0,5.02933 1.104,9.40443 3.312,13.12532 2.24889,3.68 5.336,6.66489 9.26133,8.95467 l -3.496,4.66133 c -5.56089,-3.06667 -9.62933,-6.88978 -12.20533,-11.46933 -2.576,-4.57955 -3.864,-9.67022 -3.864,-15.27199 0,-5.64267 1.32889,-10.81511 3.98667,-15.51733 2.65777,-4.74311 6.7671,-8.64799 12.32799,-11.71466 l 3.496,4.66133 c -3.92533,2.28978 -7.05333,5.35645 -9.38399,9.2 -2.28978,3.84355 -3.43467,8.30044 -3.43467,13.37066 z m 18.39998,19.87199 h 29.68532 v 6.56266 h -29.68532 z m 41.76799,-46.42931 h 7.60532 v 52.99197 h -7.60532 z m 61.33331,0 h 7.60533 v 52.99197 h -7.60533 z m 30.66665,0 h 7.60533 v 52.99197 h -7.60533 z m 61.33329,0 h 7.60533 v 52.99197 h -7.60533 z m 19.56533,46.42931 h 29.68531 v 6.56266 h -29.68531 z m 63.84794,-46.42931 h 7.728 l 17.17332,52.99197 h -7.78932 z m 28.15203,46.42931 h 29.68531 v 6.56266 h -29.68531 z m 30.66662,0 h 29.68532 v 6.56266 h -29.68532 z m 63.84798,-46.42931 h 7.728 l 17.17332,52.99197 h -7.78933 z m 39.25329,0 h 7.60533 v 52.99197 h -7.60533 z m 61.33331,0 h 7.60533 v 52.99197 h -7.60533 z m 19.56536,46.42931 h 29.68532 v 6.56266 H 916.84705 Z M 965.055,471.70544 c 0,-5.07022 -1.16533,-9.52711 -3.496,-13.37066 -2.28977,-3.84355 -5.39733,-6.91022 -9.32266,-9.2 l 3.496,-4.66133 c 5.56089,3.06667 9.67022,6.97155 12.32799,11.71466 2.65778,4.70222 3.98667,9.87466 3.98667,15.51733 0,5.60177 -1.288,10.69244 -3.864,15.27199 -2.576,4.57955 -6.64444,8.40266 -12.20533,11.46933 l -3.496,-4.66133 c 3.92533,-2.28978 6.992,-5.27467 9.2,-8.95467 2.24889,-3.72089 3.37333,-8.09599 3.37333,-13.12532 z m 54.8933,-26.55732 h 7.6053 v 52.99197 h -7.6053 z m 30.6666,0 h 7.6054 v 52.99197 h -7.6054 z m 80.8987,46.42931 h 29.6853 v 6.56266 h -29.6853 z m 30.6666,0 h 29.6854 v 6.56266 h -29.6854 z m 40.9093,6.56266 h -7.8506 l 17.1733,-52.99197 h 7.728 z m 31.5253,-52.99197 h 7.6054 v 52.99197 h -7.6054 z m 62.4987,26.55732 c 0,5.02933 1.104,9.40443 3.312,13.12532 2.2489,3.68 5.3361,6.66489 9.2614,8.95467 l -3.496,4.66133 c -5.5609,-3.06667 -9.6294,-6.88978 -12.2054,-11.46933 -2.576,-4.57955 -3.864,-9.67022 -3.864,-15.27199 0,-5.64267 1.3289,-10.81511 3.9867,-15.51733 2.6578,-4.74311 6.7671,-8.64799 12.328,-11.71466 l 3.496,4.66133 c -3.9253,2.28978 -7.0533,5.35645 -9.384,9.2 -2.2898,3.84355 -3.4347,8.30044 -3.4347,13.37066 z m 18.4,19.87199 h 29.6853 v 6.56266 h -29.6853 z m 41.7679,-46.42931 h 7.6054 v 52.99197 h -7.6054 z m 61.3334,0 h 7.6054 v 52.99197 h -7.6054 z m 30.6666,0 h 7.6054 v 52.99197 h -7.6054 z m 113.8347,23.67465 23.552,-9.87466 2.0853,6.624 -17.1733,6.68533 17.1733,6.68533 -2.0853,6.62399 -23.552,-9.93599 z M 152.69542,506.48143 h 7.728 l 17.17332,52.99197 h -7.78933 z m 28.15199,46.42931 h 29.68531 v 6.56266 h -29.68531 z m 30.66665,0 h 29.68532 v 6.56266 h -29.68532 z m 30.66665,0 h 29.68531 v 6.56266 h -29.68531 z m 41.76797,-46.42931 h 7.60533 v 52.99197 h -7.60533 z m 52.74664,0 h 7.72799 l 17.17333,52.99197 h -7.78933 z m 28.15199,46.42931 h 29.68532 v 6.56266 h -29.68532 z m 30.66664,0 h 29.68532 v 6.56266 h -29.68532 z m 37.90399,0.92 c 0.736,-0.16355 1.472,-0.30666 2.208,-0.42933 0.77689,-0.12267 1.49244,-0.30667 2.14666,-0.552 0.69511,-0.24533 1.30845,-0.59289 1.84,-1.04267 0.53155,-0.44978 0.96089,-1.06311 1.288,-1.84 -1.55378,-0.16355 -2.76,-0.77689 -3.61866,-1.84 -0.85867,-1.06311 -1.288,-2.24888 -1.288,-3.55733 0,-1.59467 0.51111,-2.90311 1.53333,-3.92533 1.06311,-1.02222 2.39199,-1.53333 3.98666,-1.53333 1.71733,0 3.04622,0.57244 3.98667,1.71733 0.98133,1.14489 1.472,2.69866 1.472,4.66133 0,1.43111 -0.22489,2.86222 -0.67467,4.29333 -0.44978,1.43111 -1.18578,2.76 -2.208,3.98667 -0.98133,1.22666 -2.26933,2.28977 -3.864,3.18933 -1.59466,0.89955 -3.53688,1.49244 -5.82666,1.77866 z m 23.42932,-0.92 h 29.68532 v 6.56266 h -29.68532 z m 41.76799,-46.42931 h 7.60533 v 52.99197 h -7.60533 z m 52.74662,0 h 7.72799 l 17.17333,52.99197 h -7.78933 z m 28.15199,46.42931 h 29.68532 v 6.56266 h -29.68532 z m 30.66666,0 h 29.68531 v 6.56266 h -29.68531 z m 41.76798,-46.42931 h 7.60533 v 52.99197 h -7.60533 z m 30.66663,0 h 7.60533 v 52.99197 h -7.60533 z m 19.56536,46.42931 h 29.68531 v 6.56266 h -29.68531 z m 30.66662,0 h 29.68532 v 6.56266 h -29.68532 z m 30.66669,0 h 29.68532 v 6.56266 H 763.5138 Z m 40.90929,6.56266 h -7.85067 l 17.17333,-52.99197 h 7.72799 z m 31.52529,-52.99197 h 7.60533 v 52.99197 h -7.60533 z m 70.59464,38.02665 c 0,1.79911 -0.552,3.16888 -1.656,4.10933 -1.104,0.94044 -2.37155,1.41066 -3.80266,1.41066 -0.736,0 -1.43111,-0.12267 -2.08534,-0.368 -0.65422,-0.24533 -1.24711,-0.59289 -1.77866,-1.04266 -0.49067,-0.49067 -0.89956,-1.06311 -1.22667,-1.71733 -0.28622,-0.69511 -0.42933,-1.49245 -0.42933,-2.392 0,-0.85867 0.14311,-1.61511 0.42933,-2.26934 0.32711,-0.69511 0.736,-1.26755 1.22667,-1.71733 0.53155,-0.44977 1.12444,-0.79733 1.77866,-1.04266 0.65423,-0.24533 1.34934,-0.368 2.08534,-0.368 1.43111,0 2.69866,0.47022 3.80266,1.41066 1.104,0.94045 1.656,2.26934 1.656,3.98667 z m 10.30403,8.40266 h 29.68532 v 6.56266 h -29.68532 z m 30.66663,0 h 29.68531 v 6.56266 h -29.68531 z m 40.90928,6.56266 h -7.85066 l 17.17333,-52.99197 h 7.72797 z m 84.27204,-52.99197 h 7.728 l 17.1733,52.99197 h -7.7893 z m 28.1519,46.42931 h 29.6853 v 6.56266 h -29.6853 z m 30.6667,0 h 29.6853 v 6.56266 h -29.6853 z m 30.6666,0 h 29.6854 v 6.56266 h -29.6854 z m 41.768,-46.42931 h 7.6053 v 52.99197 h -7.6053 z m 52.7467,0 h 7.728 l 17.1733,52.99197 h -7.7893 z m 28.152,46.42931 h 29.6853 v 6.56266 h -29.6853 z m 30.6666,0 h 29.6853 v 6.56266 h -29.6853 z m 37.9039,0.92 c 0.736,-0.16355 1.472,-0.30666 2.208,-0.42933 0.7769,-0.12267 1.4925,-0.30667 2.1467,-0.552 0.6951,-0.24533 1.3085,-0.59289 1.84,-1.04267 0.5315,-0.44978 0.9609,-1.06311 1.288,-1.84 -1.5538,-0.16355 -2.76,-0.77689 -3.6187,-1.84 -0.8587,-1.06311 -1.288,-2.24888 -1.288,-3.55733 0,-1.59467 0.5111,-2.90311 1.5334,-3.92533 1.0631,-1.02222 2.3919,-1.53333 3.9866,-1.53333 1.7173,0 3.0462,0.57244 3.9867,1.71733 0.9813,1.14489 1.472,2.69866 1.472,4.66133 0,1.43111 -0.2249,2.86222 -0.6747,4.29333 -0.4497,1.43111 -1.1857,2.76 -2.208,3.98667 -0.9813,1.22666 -2.2693,2.28977 -3.864,3.18933 -1.5947,0.89955 -3.5369,1.49244 -5.8266,1.77866 z m 23.4293,-0.92 h 29.6854 v 6.56266 h -29.6854 z m 41.7681,-46.42931 h 7.6054 v 52.99197 h -7.6054 z m 30.6666,0 h 7.6054 v 52.99197 h -7.6054 z m 19.5653,46.42931 h 29.6854 v 6.56266 h -29.6854 z m 41.768,-46.42931 h 7.6053 v 52.99197 h -7.6053 z m 22.08,0 h 7.728 l 17.1733,52.99197 h -7.7893 z m 28.152,46.42931 h 29.6854 v 6.56266 h -29.6854 z m 33.1813,-46.42931 h 7.728 l 17.1734,52.99197 H 1611.14 Z M 671.5138,614.24402 h 29.68532 v 6.56267 H 671.5138 Z m 30.66669,0 h 29.68531 v 6.56267 h -29.68531 z m 30.66662,0 h 29.68532 v 6.56267 h -29.68532 z m 30.66669,0 h 29.68532 v 6.56267 H 763.5138 Z m 30.66662,0 h 29.68532 v 6.56267 h -29.68532 z m 41.76796,-46.42931 h 7.60533 v 52.99198 h -7.60533 z m 61.33331,0 h 7.60533 v 52.99198 h -7.60533 z M 651.08983,682.14 h -7.85066 l 17.17333,-52.99197 h 7.72799 z m 71.45331,-14.96533 c 0,1.79911 -0.552,3.16889 -1.656,4.10933 -1.104,0.94045 -2.37155,1.41067 -3.80266,1.41067 -0.736,0 -1.43111,-0.12267 -2.08533,-0.368 -0.65423,-0.24533 -1.24712,-0.59289 -1.77867,-1.04267 -0.49067,-0.49067 -0.89956,-1.06311 -1.22667,-1.71733 -0.28622,-0.69511 -0.42933,-1.49244 -0.42933,-2.392 0,-0.85867 0.14311,-1.61511 0.42933,-2.26933 0.32711,-0.69511 0.736,-1.26756 1.22667,-1.71733 0.53155,-0.44978 1.12444,-0.79734 1.77867,-1.04267 0.65422,-0.24533 1.34933,-0.368 2.08533,-0.368 1.43111,0 2.69866,0.47022 3.80266,1.41067 1.104,0.94044 1.656,2.26933 1.656,3.98666 z m 10.30397,8.40266 h 29.68532 V 682.14 h -29.68532 z m 30.66669,0 h 29.68532 V 682.14 H 763.5138 Z m 30.66662,0 h 29.68532 V 682.14 h -29.68532 z m 30.66663,0 h 29.68532 V 682.14 h -29.68532 z m 30.66669,0 h 29.68532 V 682.14 h -29.68532 z m 40.90929,6.56267 h -7.85067 l 17.17333,-52.99197 h 7.72799 z m -253.06119,8.34134 h 7.72799 l 17.17333,52.99197 h -7.78933 z m 28.15196,46.42931 h 29.68532 v 6.56266 H 671.5138 Z m 48.20801,-19.87199 c 0,-5.07022 -1.16533,-9.52711 -3.496,-13.37066 -2.28977,-3.84355 -5.39733,-6.91022 -9.32266,-9.2 l 3.496,-4.66133 c 5.56089,3.06667 9.67022,6.97155 12.32799,11.71466 2.65778,4.70222 3.98667,9.87466 3.98667,15.51733 0,5.60177 -1.288,10.69244 -3.864,15.27199 -2.576,4.57955 -6.64444,8.40266 -12.20533,11.46933 l -3.496,-4.66133 c 3.92533,-2.28978 6.992,-5.27467 9.2,-8.95467 2.24889,-3.72089 3.37333,-8.09599 3.37333,-13.12532 z"
       id="text2"
       transform="matrix(0.26458333,0,0,0.26458333,-26.729114,-61.035906)"
       aria-label="              _                             _&#10;         the | |                           | |&#10; |\_/|  __ _ | |_  ___  _ __    ___   __ _ | | __&#10; / __| / _` || __|/ __|| '_ \  / _ \ / _` || |/ /&#10;| (__ | (_| || |_ \__ \| |_) ||  __/| (_| ||   &lt;&#10; \___| \__,_| \__||___/| .__/  \___| \__,_||_|\_\&#10;                  _____| |&#10;                 / ._____/ reference&#10;                 \_)"
       sodipodi:nodetypes="cccccccccccccccccccccccccccccccccccccccccccccccccccccccccccccccccccccccccccccccccccccccccccccccccccccccccccccccccccccccccccccccccccccccccccccccccccccccccccccccccccccccccccccccccccccccccccccccccccccccccccccccccccccccccccccccccccccccccccccccccccccccccccsccccccccsccccccccccccccccccccccccccccccccccccccccccccccccccccccccccccccccccccccccscccssccccscccccccccccccccscccssccccscccccccccccccccccccccccccccccccccccccccccccccccccccccccccccccccccsccccsscccsccccccccccccccccccccccccccccccscccssccccscccccccccccccccccccccccccccccccccccccccccccccccccccccccccccccccccccccccscsscscsscsccccccccccccccccccccccccccccccccccccccccccccccccccccccccccccccssssccsccssssccccccccccccccccccccccccccccccccccccccccccccccccccccccccccscsscscsscsccccccccccccccccccccccccccccccccccccccccccccccccccccccccccccccccccccccccccccccccccssssccsccssssccccccccccccccccccccccccccccccccccccccccsccccsscccs" />
  </g>
</svg>
