<?xml version="1.0" encoding="UTF-8" standalone="no"?>
<!-- Created with Inkscape (http://www.inkscape.org/) -->

<svg
   width="200mm"
   height="149mm"
   viewBox="0 0 200 149"
   version="1.1"
   id="svg1"
   inkscape:version="1.3 (0e150ed6c4, 2023-07-21)"
   sodipodi:docname="logogreen.svg"
   xmlns:inkscape="http://www.inkscape.org/namespaces/inkscape"
   xmlns:sodipodi="http://sodipodi.sourceforge.net/DTD/sodipodi-0.dtd"
   xmlns="http://www.w3.org/2000/svg"
   xmlns:svg="http://www.w3.org/2000/svg">
  <sodipodi:namedview
     id="namedview1"
     pagecolor="#ffffff"
     bordercolor="#000000"
     borderopacity="0.25"
     inkscape:showpageshadow="2"
     inkscape:pageopacity="0.0"
     inkscape:pagecheckerboard="0"
     inkscape:deskcolor="#d1d1d1"
     inkscape:document-units="mm"
     showguides="false"
     inkscape:zoom="1.0305625"
     inkscape:cx="72.290616"
     inkscape:cy="329.91691"
     inkscape:window-width="1920"
     inkscape:window-height="1017"
     inkscape:window-x="1920"
     inkscape:window-y="26"
     inkscape:window-maximized="1"
     inkscape:current-layer="layer1" />
  <defs
     id="defs1">
    <rect
       x="119.02344"
       y="244.84074"
       width="74.387619"
       height="81.822975"
       id="rect3" />
    <rect
       x="119.02328"
       y="193.14749"
       width="1175.3749"
       height="805.34961"
       id="rect2" />
    <rect
       x="97.736961"
       y="173.7534"
       width="434.44785"
       height="424.32196"
       id="rect1" />
  </defs>
  <g
     inkscape:label="Camada 1"
     inkscape:groupmode="layer"
     id="layer1">
    <path
       style="font-weight:bold;font-size:61.3333px;line-height:1;font-family:'Ubuntu Mono';-inkscape-font-specification:'Ubuntu Mono Bold';white-space:pre;stroke-width:0.264583;fill:#526666;fill-opacity:1"
       d="m 39.22859,0.52916667 h 7.854238 V 2.2655399 H 39.22859 Z m 113.59441,0 h 7.85424 V 2.2655399 H 152.823 Z M 34.05193,4.4725141 h 2.012243 V 18.49331 H 34.05193 Z m 24.73112,0.1298231 2.563987,1.8012833 -0.73025,1.0872602 -2.823631,-1.3631333 z m 10.174813,9.9313958 q 0,0.714023 -0.43815,1.08726 -0.43815,0.37324 -1.006123,0.37324 -0.2921,0 -0.551743,-0.09737 -0.259644,-0.09737 -0.470607,-0.275873 -0.194733,-0.194733 -0.324553,-0.454377 -0.113594,-0.275873 -0.113594,-0.632883 0,-0.340783 0.113594,-0.600427 0.12982,-0.275873 0.324553,-0.454377 0.210963,-0.178506 0.470607,-0.275873 0.259643,-0.09737 0.551743,-0.09737 0.567973,0 1.006123,0.37324 0.43815,0.373237 0.43815,1.054804 z m 64.911097,0 q 0,0.714023 -0.43815,1.08726 -0.43815,0.37324 -1.00612,0.37324 -0.2921,0 -0.55175,-0.09737 -0.25964,-0.09737 -0.4706,-0.275873 -0.19474,-0.194733 -0.32456,-0.454377 -0.11359,-0.275873 -0.11359,-0.632883 0,-0.340783 0.11359,-0.600427 0.12982,-0.275873 0.32456,-0.454377 0.21096,-0.178506 0.4706,-0.275873 0.25965,-0.09737 0.55175,-0.09737 0.56797,0 1.00612,0.37324 0.43815,0.373237 0.43815,1.054804 z m 7.74064,-9.7366625 v 1.0710334 q 0,0.4056935 -0.0487,0.8925268 -0.0325,0.4706038 -0.11359,0.9736667 -0.0649,0.5030602 -0.14605,1.0061206 -0.0811,0.486833 -0.16228,0.908757 h -1.1684 q -0.0811,-0.421924 -0.16228,-0.908757 -0.0811,-0.5030604 -0.16228,-1.0061206 -0.0649,-0.5030629 -0.11359,-0.9736667 -0.0487,-0.4868333 -0.0487,-0.8925268 V 4.7970705 Z m 22.2645,-0.3245564 h 2.01224 V 18.49331 H 163.8741 Z M 34.05193,20.700284 h 2.012243 V 34.721076 H 34.05193 Z m 38.297535,0 h 2.044697 l 4.543777,14.020792 h -2.060927 z m 7.448547,12.284422 h 7.854241 v 1.73637 h -7.854241 z m 13.501505,-2.223204 q 0,0.71402 -0.43815,1.08726 -0.43815,0.37324 -1.006121,0.37324 -0.2921,0 -0.551746,-0.09737 -0.259644,-0.09737 -0.470604,-0.275873 -0.194733,-0.194733 -0.324556,-0.454377 -0.113594,-0.275873 -0.113594,-0.632883 0,-0.340784 0.113594,-0.600427 0.129823,-0.275873 0.324556,-0.45438 0.21096,-0.178503 0.470604,-0.27587 0.259646,-0.09737 0.551746,-0.09737 0.567971,0 1.006121,0.373237 0.43815,0.37324 0.43815,1.054807 z m 8.113903,0 q 0,0.71402 -0.43815,1.08726 -0.43815,0.37324 -1.006137,0.37324 -0.2921,0 -0.55174,-0.09737 -0.25965,-0.09737 -0.47061,-0.275873 -0.19473,-0.194733 -0.32456,-0.454377 -0.11359,-0.275873 -0.11359,-0.632883 0,-0.340784 0.11359,-0.600427 0.12983,-0.275873 0.32456,-0.45438 0.21096,-0.178503 0.47061,-0.27587 0.25964,-0.09737 0.55174,-0.09737 0.567987,0 1.006137,0.373237 0.43815,0.37324 0.43815,1.054807 z m 8.11389,0 q 0,0.71402 -0.43815,1.08726 -0.43815,0.37324 -1.00612,0.37324 -0.2921,0 -0.55175,-0.09737 -0.25964,-0.09737 -0.4706,-0.275873 -0.19474,-0.194733 -0.32456,-0.454377 -0.11359,-0.275873 -0.11359,-0.632883 0,-0.340784 0.11359,-0.600427 0.12982,-0.275873 0.32456,-0.45438 0.21096,-0.178503 0.4706,-0.27587 0.25965,-0.09737 0.55175,-0.09737 0.56797,0 1.00612,0.373237 0.43815,0.37324 0.43815,1.054807 z m 2.72625,2.223204 h 7.85425 v 1.73637 h -7.85425 z m 10.82393,1.73637 h -2.07716 l 4.54378,-14.020792 h 2.0447 z M 163.8741,20.700284 h 2.01224 V 34.721076 H 163.8741 Z M 25.710858,50.94885 h -2.077154 l 4.543775,-14.020795 h 2.0447 z m 37.859385,-1.736373 h 7.854241 v 1.736373 h -7.854241 z m 64.911097,0 h 7.85424 v 1.736373 h -7.85424 z m 41.23477,-12.284422 h 2.0447 l 4.54377,14.020795 h -2.06092 z M 1.9858576,53.28565 l 2.5639871,1.801283 -0.73025,1.08726 -2.82363059,-1.363133 z m 6.4911073,6.069187 h 4.4464121 v 1.96356 H 8.4769649 Z M 17.824161,53.15583 h 2.012244 V 67.176621 H 17.824161 Z M 58.166393,67.176621 H 56.089239 L 60.633016,53.15583 h 2.044697 z M 72.349465,53.15583 h 2.044697 l 4.543777,14.020791 h -2.060927 z m 50.728025,14.020791 h -2.07716 l 4.54378,-14.020791 h 2.0447 z M 137.26056,53.15583 h 2.0447 l 4.54378,14.020791 h -2.06093 z m 42.84131,0 h 2.01225 v 14.020791 h -2.01225 z m 6.88057,6.199007 h 4.44641 v 1.96356 h -4.44641 z m 11.42436,-5.874454 v 1.071034 q 0,0.405693 -0.0487,0.892526 -0.0325,0.470607 -0.1136,0.973667 -0.0649,0.50306 -0.14605,1.006123 -0.0811,0.486831 -0.16228,0.908754 h -1.1684 q -0.0811,-0.421923 -0.16227,-0.908754 -0.0811,-0.503063 -0.16228,-1.006123 -0.0649,-0.50306 -0.11359,-0.973667 -0.0487,-0.486833 -0.0487,-0.892526 V 53.480383 Z M 0.36308071,75.582608 H 4.8094909 v 1.963561 H 0.36308071 Z m 8.11388419,0 h 4.4464121 v 1.963561 H 8.4769649 Z m 9.3471961,-6.199007 h 2.012244 v 14.020792 h -2.012244 z m 40.569422,0 h 2.012243 v 14.020792 h -2.012243 z m 16.227769,0 h 2.012243 v 14.020792 h -2.012243 z m 48.683328,0 h 2.01224 v 14.020792 h -2.01224 z m 16.22777,0 h 2.01224 v 14.020792 h -2.01224 z m 40.56942,0 h 2.01225 v 14.020792 h -2.01225 z m 6.88057,6.199007 h 4.44641 v 1.963561 h -4.44641 z m 8.11389,0 h 4.44641 v 1.963561 h -4.44641 z M 12.16067,95.672582 q 0,0.714021 -0.43815,1.08726 -0.43815,0.37324 -1.00612,0.37324 -0.2921,0 -0.551747,-0.09737 -0.2596431,-0.09736 -0.4706041,-0.27587 -0.194733,-0.194733 -0.324556,-0.454377 -0.113594,-0.275873 -0.113594,-0.632883 0,-0.340783 0.113594,-0.600427 0.129823,-0.275873 0.324556,-0.454379 0.210961,-0.178504 0.4706041,-0.275871 0.259647,-0.09737 0.551747,-0.09737 0.56797,0 1.00612,0.373237 0.43815,0.373239 0.43815,1.054806 z m 7.740647,-9.736661 v 1.071033 q 0,0.405694 -0.04868,0.892527 -0.03246,0.470604 -0.113596,0.973667 -0.06491,0.50306 -0.14605,1.00612 -0.08114,0.486833 -0.162277,0.908757 h -1.1684 q -0.08114,-0.421924 -0.162277,-0.908757 -0.08114,-0.50306 -0.162277,-1.00612 -0.06491,-0.503063 -0.113596,-0.973667 -0.04868,-0.486833 -0.04868,-0.892527 v -1.071033 z m 3.764841,-0.324557 h 2.0447 l 4.543774,14.020796 h -2.060926 z m 32.455538,0 h 2.044697 L 62.71017,99.63216 h -2.060927 z m 7.448547,12.284422 h 7.854241 v 1.736374 h -7.854241 z m 10.823919,1.736374 h -2.077154 l 4.543774,-14.020796 h 2.0447 z m 13.517734,-1.736374 h 7.854237 v 1.736374 h -7.854237 z m 13.501524,-2.223204 q 0,0.714021 -0.43815,1.08726 -0.43815,0.37324 -1.006137,0.37324 -0.2921,0 -0.55174,-0.09737 -0.25965,-0.09737 -0.47061,-0.275873 -0.19473,-0.194733 -0.32456,-0.454377 -0.11359,-0.275873 -0.11359,-0.632883 0,-0.340783 0.11359,-0.600427 0.12983,-0.275873 0.32456,-0.454379 0.21096,-0.178504 0.47061,-0.275871 0.25964,-0.09737 0.55174,-0.09737 0.567987,0 1.006137,0.373237 0.43815,0.373239 0.43815,1.054806 z m 2.72627,2.223204 h 7.85424 v 1.736374 h -7.85424 z m 16.8931,-12.284422 h 2.0447 l 4.54378,14.020796 h -2.06093 z m 7.44855,12.284422 h 7.85424 v 1.736374 h -7.85424 z m 10.82392,1.736374 h -2.07715 l 4.54377,-14.020796 h 2.0447 z m 32.45555,0 h -2.07716 l 4.54378,-14.020796 h 2.0447 z m 8.73053,-13.890973 2.56399,1.801284 -0.73025,1.08726 -2.82364,-1.363133 z m 10.1748,9.931395 q 0,0.714021 -0.43815,1.08726 -0.43815,0.37324 -1.00612,0.37324 -0.2921,0 -0.55174,-0.09737 -0.25965,-0.09737 -0.47061,-0.275873 -0.19473,-0.194733 -0.32455,-0.454377 -0.1136,-0.275873 -0.1136,-0.632883 0,-0.340783 0.1136,-0.600427 0.12982,-0.275873 0.32455,-0.454379 0.21096,-0.178504 0.47061,-0.275871 0.25964,-0.09737 0.55174,-0.09737 0.56797,0 1.00612,0.373237 0.43815,0.373239 0.43815,1.054806 z m -156.224744,6.296388 2.56399,1.80128 -0.73025,1.08726 -2.823633,-1.36313 z m 10.255951,8.43844 q -0.43815,0 -0.827616,-0.16228 -0.37324,-0.1785 -0.73025,-0.38946 -0.35701,-0.21096 -0.697794,-0.37324 -0.324556,-0.17851 -0.632883,-0.17851 -0.129823,0 -0.259644,0.0325 -0.113596,0.0325 -0.227189,0.14605 -0.113594,0.0974 -0.210961,0.30833 -0.09737,0.21096 -0.194733,0.56797 l -1.476727,-0.4057 q 0.06491,-0.40569 0.22719,-0.84384 0.162277,-0.45438 0.42192,-0.82762 0.275873,-0.37324 0.681567,-0.61665 0.405694,-0.25965 0.973667,-0.25965 0.42192,0 0.79516,0.17851 0.389467,0.16228 0.746477,0.37324 0.35701,0.21096 0.681566,0.38946 0.324557,0.16228 0.649111,0.16228 0.129823,0 0.243416,-0.0324 0.129823,-0.0325 0.243417,-0.14605 0.113594,-0.1136 0.21096,-0.32456 0.113596,-0.21096 0.210963,-0.56797 l 1.476727,0.40569 q -0.08114,0.4057 -0.243417,0.86008 -0.14605,0.43815 -0.421923,0.82761 -0.27587,0.37324 -0.681566,0.63289 -0.389467,0.24341 -0.957438,0.24341 z m 8.032748,1.49296 q 0,0.71402 -0.43815,1.08726 -0.43815,0.37324 -1.006123,0.37324 -0.292098,0 -0.551744,-0.0974 -0.259644,-0.0974 -0.470604,-0.27587 -0.194733,-0.19474 -0.324556,-0.45438 -0.113594,-0.27587 -0.113594,-0.63288 0,-0.34079 0.113594,-0.60043 0.129823,-0.27587 0.324556,-0.45438 0.21096,-0.1785 0.470604,-0.27587 0.259646,-0.0974 0.551744,-0.0974 0.567973,0 1.006123,0.37324 0.43815,0.37324 0.43815,1.05481 z m 8.113881,0 q 0,0.71402 -0.43815,1.08726 -0.43815,0.37324 -1.00612,0.37324 -0.2921,0 -0.551746,-0.0974 -0.259644,-0.0974 -0.470604,-0.27587 -0.194733,-0.19474 -0.324556,-0.45438 -0.113594,-0.27587 -0.113594,-0.63288 0,-0.34079 0.113594,-0.60043 0.129823,-0.27587 0.324556,-0.45438 0.21096,-0.1785 0.470604,-0.27587 0.259646,-0.0974 0.551746,-0.0974 0.56797,0 1.00612,0.37324 0.43815,0.37324 0.43815,1.05481 z m 2.726267,2.2232 h 7.854241 v 1.73637 h -7.854241 z m 8.113882,0 h 7.854241 v 1.73637 h -7.854241 z m 8.113887,0 h 7.854241 v 1.73637 h -7.854241 z m 8.113884,0 h 7.854237 v 1.73637 h -7.854237 z m 8.113887,0 h 7.854257 v 1.73637 h -7.854257 z m 8.113907,0 h 7.85424 v 1.73637 h -7.85424 z m 45.95703,-2.2232 q 0,0.71402 -0.43815,1.08726 -0.43815,0.37324 -1.00612,0.37324 -0.2921,0 -0.55174,-0.0974 -0.25965,-0.0974 -0.47061,-0.27587 -0.19473,-0.19474 -0.32455,-0.45438 -0.1136,-0.27587 -0.1136,-0.63288 0,-0.34079 0.1136,-0.60043 0.12982,-0.27587 0.32455,-0.45438 0.21096,-0.1785 0.47061,-0.27587 0.25964,-0.0974 0.55174,-0.0974 0.56797,0 1.00612,0.37324 0.43815,0.37324 0.43815,1.05481 z m 8.19503,-1.49296 q -0.43815,0 -0.82761,-0.16228 -0.37324,-0.1785 -0.73025,-0.38946 -0.35701,-0.21096 -0.6978,-0.37324 -0.32455,-0.17851 -0.63288,-0.17851 -0.12982,0 -0.25964,0.0325 -0.1136,0.0325 -0.22719,0.14605 -0.1136,0.0974 -0.21096,0.30833 -0.0974,0.21096 -0.19474,0.56797 l -1.47672,-0.4057 q 0.0649,-0.40569 0.22718,-0.84384 0.16228,-0.45438 0.42193,-0.82762 0.27587,-0.37324 0.68156,-0.61665 0.4057,-0.25965 0.97367,-0.25965 0.42192,0 0.79516,0.17851 0.38947,0.16228 0.74648,0.37324 0.35701,0.21096 0.68156,0.38946 0.32456,0.16228 0.64911,0.16228 0.12983,0 0.24342,-0.0324 0.12982,-0.0325 0.24342,-0.14605 0.11359,-0.1136 0.21096,-0.32456 0.11359,-0.21096 0.21096,-0.56797 l 1.47673,0.40569 q -0.0811,0.4057 -0.24342,0.86008 -0.14605,0.43815 -0.42192,0.82761 -0.27587,0.37324 -0.68157,0.63289 -0.38946,0.24341 -0.95744,0.24341 z m 7.6595,-8.24371 v 1.07104 q 0,0.40569 -0.0487,0.89252 -0.0324,0.47061 -0.11359,0.97367 -0.0649,0.50306 -0.14605,1.00612 -0.0811,0.48683 -0.16228,0.90876 h -1.1684 q -0.0811,-0.42193 -0.16228,-0.90876 -0.0811,-0.50306 -0.16228,-1.00612 -0.0649,-0.50306 -0.11359,-0.97367 -0.0487,-0.48683 -0.0487,-0.89252 v -1.07104 z m -50.37099,16.03304 2.56399,1.80129 -0.73025,1.08726 -2.82364,-1.36313 z m 10.17481,9.9314 q 0,0.71402 -0.43815,1.08726 -0.43815,0.37324 -1.00612,0.37324 -0.2921,0 -0.55174,-0.0974 -0.25965,-0.0974 -0.47061,-0.27587 -0.19473,-0.19473 -0.32455,-0.45438 -0.1136,-0.27587 -0.1136,-0.63288 0,-0.34078 0.1136,-0.60043 0.12982,-0.27587 0.32455,-0.45438 0.21096,-0.1785 0.47061,-0.27587 0.25964,-0.0974 0.55174,-0.0974 0.56797,0 1.00612,0.37324 0.43815,0.37324 0.43815,1.05481 z m 21.89126,-10.06122 h 2.01224 v 14.02079 h -2.01224 z m -15.8383,16.3576 2.56399,1.80128 -0.73025,1.08726 -2.82363,-1.36313 z m 10.17481,9.93139 q 0,0.71402 -0.43815,1.08726 -0.43815,0.37324 -1.00612,0.37324 -0.2921,0 -0.55174,-0.0974 -0.25965,-0.0974 -0.47061,-0.27587 -0.19473,-0.19473 -0.32455,-0.45438 -0.1136,-0.27587 -0.1136,-0.63288 0,-0.34078 0.1136,-0.60043 0.12982,-0.27587 0.32455,-0.45438 0.21096,-0.1785 0.47061,-0.27587 0.25964,-0.0974 0.55174,-0.0974 0.56797,0 1.00612,0.37323 0.43815,0.37324 0.43815,1.05481 z m 5.66349,-10.06122 h 2.01224 v 14.0208 h -2.01224 z"
       id="text2"
       aria-label="     _             _&#10;    |  `.       .'  |&#10;    |    \_..._/    |&#10;   /    _       _    \&#10;`-|    / \     / \    |-'&#10;--|    | |     | |    |--&#10; .'\   \_/ _._ \_/   /`.&#10;    `~..______    .~'&#10;              `.  |&#10;                `.|" />
  </g>
</svg>
