<?xml version="1.0" encoding="UTF-8"?>
<svg width="200mm" height="149mm" version="1.1" viewBox="0 0 200 149" xmlns="http://www.w3.org/2000/svg">
<path d="m39.229 0.52917h7.8542v1.7364h-7.8542zm113.59 0h7.8542v1.7364h-7.8542zm-118.77 3.9433h2.0122v14.021h-2.0122zm24.731 0.12982 2.564 1.8013-0.73025 1.0873-2.8236-1.3631zm10.175 9.9314q0 0.71402-0.43815 1.0873-0.43815 0.37324-1.0061 0.37324-0.2921 0-0.55174-0.09737-0.25964-0.09737-0.47061-0.27587-0.19473-0.19473-0.32455-0.45438-0.11359-0.27587-0.11359-0.63288 0-0.34078 0.11359-0.60043 0.12982-0.27587 0.32455-0.45438 0.21096-0.17851 0.47061-0.27587 0.25964-0.09737 0.55174-0.09737 0.56797 0 1.0061 0.37324 0.43815 0.37324 0.43815 1.0548zm64.911 0q0 0.71402-0.43815 1.0873-0.43815 0.37324-1.0061 0.37324-0.2921 0-0.55175-0.09737-0.25964-0.09737-0.4706-0.27587-0.19474-0.19473-0.32456-0.45438-0.11359-0.27587-0.11359-0.63288 0-0.34078 0.11359-0.60043 0.12982-0.27587 0.32456-0.45438 0.21096-0.17851 0.4706-0.27587 0.25965-0.09737 0.55175-0.09737 0.56797 0 1.0061 0.37324 0.43815 0.37324 0.43815 1.0548zm7.7406-9.7367v1.071q0 0.40569-0.0487 0.89253-0.0325 0.4706-0.11359 0.97367-0.0649 0.50306-0.14605 1.0061-0.0811 0.48683-0.16228 0.90876h-1.1684q-0.0811-0.42192-0.16228-0.90876-0.0811-0.50306-0.16228-1.0061-0.0649-0.50306-0.11359-0.97367-0.0487-0.48683-0.0487-0.89253v-1.071zm22.264-0.32456h2.0122v14.021h-2.0122zm-129.82 16.228h2.0122v14.021h-2.0122zm38.298 0h2.0447l4.5438 14.021h-2.0609zm7.4485 12.284h7.8542v1.7364h-7.8542zm13.502-2.2232q0 0.71402-0.43815 1.0873t-1.0061 0.37324q-0.2921 0-0.55175-0.09737-0.25964-0.09737-0.4706-0.27587-0.19473-0.19473-0.32456-0.45438-0.11359-0.27587-0.11359-0.63288 0-0.34078 0.11359-0.60043 0.12982-0.27587 0.32456-0.45438 0.21096-0.1785 0.4706-0.27587 0.25965-0.09737 0.55175-0.09737 0.56797 0 1.0061 0.37324 0.43815 0.37324 0.43815 1.0548zm8.1139 0q0 0.71402-0.43815 1.0873t-1.0061 0.37324q-0.2921 0-0.55174-0.09737-0.25965-0.09737-0.47061-0.27587-0.19473-0.19473-0.32456-0.45438-0.11359-0.27587-0.11359-0.63288 0-0.34078 0.11359-0.60043 0.12983-0.27587 0.32456-0.45438 0.21096-0.1785 0.47061-0.27587 0.25964-0.09737 0.55174-0.09737 0.56799 0 1.0061 0.37324 0.43815 0.37324 0.43815 1.0548zm8.1139 0q0 0.71402-0.43815 1.0873t-1.0061 0.37324q-0.2921 0-0.55175-0.09737-0.25964-0.09737-0.4706-0.27587-0.19474-0.19473-0.32456-0.45438-0.11359-0.27587-0.11359-0.63288 0-0.34078 0.11359-0.60043 0.12982-0.27587 0.32456-0.45438 0.21096-0.1785 0.4706-0.27587 0.25965-0.09737 0.55175-0.09737 0.56797 0 1.0061 0.37324 0.43815 0.37324 0.43815 1.0548zm2.7262 2.2232h7.8542v1.7364h-7.8542zm10.824 1.7364h-2.0772l4.5438-14.021h2.0447zm40.797-14.021h2.0122v14.021h-2.0122zm-138.16 30.249h-2.0772l4.5438-14.021h2.0447zm37.859-1.7364h7.8542v1.7364h-7.8542zm64.911 0h7.8542v1.7364h-7.8542zm41.235-12.284h2.0447l4.5438 14.021h-2.0609zm-167.73 16.358 2.564 1.8013-0.73025 1.0873-2.8236-1.3631zm6.4911 6.0692h4.4464v1.9636h-4.4464zm9.3472-6.199h2.0122v14.021h-2.0122zm40.342 14.021h-2.0772l4.5438-14.021h2.0447zm14.183-14.021h2.0447l4.5438 14.021h-2.0609zm50.728 14.021h-2.0772l4.5438-14.021h2.0447zm14.183-14.021h2.0447l4.5438 14.021h-2.0609zm42.841 0h2.0122v14.021h-2.0122zm6.8806 6.199h4.4464v1.9636h-4.4464zm11.424-5.8745v1.071q0 0.40569-0.0487 0.89253-0.0325 0.47061-0.1136 0.97367-0.0649 0.50306-0.14605 1.0061-0.0811 0.48683-0.16228 0.90875h-1.1684q-0.0811-0.42192-0.16227-0.90875-0.0811-0.50306-0.16228-1.0061-0.0649-0.50306-0.11359-0.97367-0.0487-0.48683-0.0487-0.89253v-1.071zm-198.04 22.102h4.4464v1.9636h-4.4464zm8.1139 0h4.4464v1.9636h-4.4464zm9.3472-6.199h2.0122v14.021h-2.0122zm40.569 0h2.0122v14.021h-2.0122zm16.228 0h2.0122v14.021h-2.0122zm48.683 0h2.0122v14.021h-2.0122zm16.228 0h2.0122v14.021h-2.0122zm40.569 0h2.0122v14.021h-2.0122zm6.8806 6.199h4.4464v1.9636h-4.4464zm8.1139 0h4.4464v1.9636h-4.4464zm-182.94 20.09q0 0.71402-0.43815 1.0873-0.43815 0.37324-1.0061 0.37324-0.2921 0-0.55175-0.09737-0.25964-0.09736-0.4706-0.27587-0.19473-0.19473-0.32456-0.45438-0.11359-0.27587-0.11359-0.63288 0-0.34078 0.11359-0.60043 0.12982-0.27587 0.32456-0.45438 0.21096-0.1785 0.4706-0.27587 0.25965-0.09737 0.55175-0.09737 0.56797 0 1.0061 0.37324 0.43815 0.37324 0.43815 1.0548zm7.7406-9.7367v1.071q0 0.40569-0.04868 0.89253-0.03246 0.4706-0.1136 0.97367-0.06491 0.50306-0.14605 1.0061-0.08114 0.48683-0.16228 0.90876h-1.1684q-0.08114-0.42192-0.16228-0.90876-0.08114-0.50306-0.16228-1.0061-0.06491-0.50306-0.1136-0.97367-0.04868-0.48683-0.04868-0.89253v-1.071zm3.7648-0.32456h2.0447l4.5438 14.021h-2.0609zm32.456 0h2.0447l4.5438 14.021h-2.0609zm7.4485 12.284h7.8542v1.7364h-7.8542zm10.824 1.7364h-2.0772l4.5438-14.021h2.0447zm13.518-1.7364h7.8542v1.7364h-7.8542zm13.502-2.2232q0 0.71402-0.43815 1.0873-0.43815 0.37324-1.0061 0.37324-0.2921 0-0.55174-0.09737-0.25965-0.09737-0.47061-0.27587-0.19473-0.19473-0.32456-0.45438-0.11359-0.27587-0.11359-0.63288 0-0.34078 0.11359-0.60043 0.12983-0.27587 0.32456-0.45438 0.21096-0.1785 0.47061-0.27587 0.25964-0.09737 0.55174-0.09737 0.56799 0 1.0061 0.37324 0.43815 0.37324 0.43815 1.0548zm2.7263 2.2232h7.8542v1.7364h-7.8542zm16.893-12.284h2.0447l4.5438 14.021h-2.0609zm7.4486 12.284h7.8542v1.7364h-7.8542zm10.824 1.7364h-2.0772l4.5438-14.021h2.0447zm32.456 0h-2.0772l4.5438-14.021h2.0447zm8.7305-13.891 2.564 1.8013-0.73025 1.0873-2.8236-1.3631zm10.175 9.9314q0 0.71402-0.43815 1.0873-0.43815 0.37324-1.0061 0.37324-0.2921 0-0.55174-0.09737-0.25965-0.09737-0.47061-0.27587-0.19473-0.19473-0.32455-0.45438-0.1136-0.27587-0.1136-0.63288 0-0.34078 0.1136-0.60043 0.12982-0.27587 0.32455-0.45438 0.21096-0.1785 0.47061-0.27587 0.25964-0.09737 0.55174-0.09737 0.56797 0 1.0061 0.37324 0.43815 0.37324 0.43815 1.0548zm-156.22 6.2964 2.564 1.8013-0.73025 1.0873-2.8236-1.3631zm10.256 8.4384q-0.43815 0-0.82762-0.16228-0.37324-0.1785-0.73025-0.38946t-0.69779-0.37324q-0.32456-0.17851-0.63288-0.17851-0.12982 0-0.25964 0.0325-0.1136 0.0325-0.22719 0.14605-0.11359 0.0974-0.21096 0.30833-0.09737 0.21096-0.19473 0.56797l-1.4767-0.4057q0.06491-0.40569 0.22719-0.84384 0.16228-0.45438 0.42192-0.82762 0.27587-0.37324 0.68157-0.61665 0.40569-0.25965 0.97367-0.25965 0.42192 0 0.79516 0.17851 0.38947 0.16228 0.74648 0.37324t0.68157 0.38946q0.32456 0.16228 0.64911 0.16228 0.12982 0 0.24342-0.0324 0.12982-0.0325 0.24342-0.14605 0.11359-0.1136 0.21096-0.32456 0.1136-0.21096 0.21096-0.56797l1.4767 0.40569q-0.08114 0.4057-0.24342 0.86008-0.14605 0.43815-0.42192 0.82761-0.27587 0.37324-0.68157 0.63289-0.38947 0.24341-0.95744 0.24341zm8.0327 1.493q0 0.71402-0.43815 1.0873t-1.0061 0.37324q-0.2921 0-0.55174-0.0974-0.25964-0.0974-0.4706-0.27587-0.19473-0.19474-0.32456-0.45438-0.11359-0.27587-0.11359-0.63288 0-0.34079 0.11359-0.60043 0.12982-0.27587 0.32456-0.45438 0.21096-0.1785 0.4706-0.27587 0.25965-0.0974 0.55174-0.0974 0.56797 0 1.0061 0.37324t0.43815 1.0548zm8.1139 0q0 0.71402-0.43815 1.0873t-1.0061 0.37324q-0.2921 0-0.55175-0.0974-0.25964-0.0974-0.4706-0.27587-0.19473-0.19474-0.32456-0.45438-0.11359-0.27587-0.11359-0.63288 0-0.34079 0.11359-0.60043 0.12982-0.27587 0.32456-0.45438 0.21096-0.1785 0.4706-0.27587 0.25965-0.0974 0.55175-0.0974 0.56797 0 1.0061 0.37324t0.43815 1.0548zm2.7263 2.2232h7.8542v1.7364h-7.8542zm8.1139 0h7.8542v1.7364h-7.8542zm8.1139 0h7.8542v1.7364h-7.8542zm8.1139 0h7.8542v1.7364h-7.8542zm8.1139 0h7.8543v1.7364h-7.8543zm8.1139 0h7.8542v1.7364h-7.8542zm45.957-2.2232q0 0.71402-0.43815 1.0873t-1.0061 0.37324q-0.2921 0-0.55174-0.0974-0.25965-0.0974-0.47061-0.27587-0.19473-0.19474-0.32455-0.45438-0.1136-0.27587-0.1136-0.63288 0-0.34079 0.1136-0.60043 0.12982-0.27587 0.32455-0.45438 0.21096-0.1785 0.47061-0.27587 0.25964-0.0974 0.55174-0.0974 0.56797 0 1.0061 0.37324t0.43815 1.0548zm8.195-1.493q-0.43815 0-0.82761-0.16228-0.37324-0.1785-0.73025-0.38946t-0.6978-0.37324q-0.32455-0.17851-0.63288-0.17851-0.12982 0-0.25964 0.0325-0.1136 0.0325-0.22719 0.14605-0.1136 0.0974-0.21096 0.30833-0.0974 0.21096-0.19474 0.56797l-1.4767-0.4057q0.0649-0.40569 0.22718-0.84384 0.16228-0.45438 0.42193-0.82762 0.27587-0.37324 0.68156-0.61665 0.4057-0.25965 0.97367-0.25965 0.42192 0 0.79516 0.17851 0.38947 0.16228 0.74648 0.37324t0.68156 0.38946q0.32456 0.16228 0.64911 0.16228 0.12983 0 0.24342-0.0324 0.12982-0.0325 0.24342-0.14605 0.11359-0.1136 0.21096-0.32456 0.11359-0.21096 0.21096-0.56797l1.4767 0.40569q-0.0811 0.4057-0.24342 0.86008-0.14605 0.43815-0.42192 0.82761-0.27587 0.37324-0.68157 0.63289-0.38946 0.24341-0.95744 0.24341zm7.6595-8.2437v1.071q0 0.40569-0.0487 0.89252-0.0324 0.47061-0.11359 0.97367-0.0649 0.50306-0.14605 1.0061-0.0811 0.48683-0.16228 0.90876h-1.1684q-0.0811-0.42193-0.16228-0.90876-0.0811-0.50306-0.16228-1.0061-0.0649-0.50306-0.11359-0.97367-0.0487-0.48683-0.0487-0.89252v-1.071zm-50.371 16.033 2.564 1.8013-0.73025 1.0873-2.8236-1.3631zm10.175 9.9314q0 0.71402-0.43815 1.0873t-1.0061 0.37324q-0.2921 0-0.55174-0.0974-0.25965-0.0974-0.47061-0.27587-0.19473-0.19473-0.32455-0.45438-0.1136-0.27587-0.1136-0.63288 0-0.34078 0.1136-0.60043 0.12982-0.27587 0.32455-0.45438 0.21096-0.1785 0.47061-0.27587 0.25964-0.0974 0.55174-0.0974 0.56797 0 1.0061 0.37324t0.43815 1.0548zm21.891-10.061h2.0122v14.021h-2.0122zm-15.838 16.358 2.564 1.8013-0.73025 1.0873-2.8236-1.3631zm10.175 9.9314q0 0.71402-0.43815 1.0873t-1.0061 0.37324q-0.2921 0-0.55174-0.0974-0.25965-0.0974-0.47061-0.27587-0.19473-0.19473-0.32455-0.45438-0.1136-0.27587-0.1136-0.63288 0-0.34078 0.1136-0.60043 0.12982-0.27587 0.32455-0.45438 0.21096-0.1785 0.47061-0.27587 0.25964-0.0974 0.55174-0.0974 0.56797 0 1.0061 0.37323 0.43815 0.37324 0.43815 1.0548zm5.6635-10.061h2.0122v14.021h-2.0122z" fill="#526666" stroke-width=".26458"/>
</svg>
