<?xml version="1.0" encoding="UTF-8"?>
<svg width="405mm" height="138mm" version="1.1" viewBox="0 0 405 138" xmlns="http://www.w3.org/2000/svg">
<path transform="matrix(.26458 0 0 .26458 -26.729 -61.036)" d="m548.85 246.24h29.685v6.5627h-29.685zm920 0h29.685v6.5627h-29.685zm-939.56 14.904h7.6053v52.992h-7.6053zm61.333 0h7.6053v52.992h-7.6053zm858.67 0h7.6054v52.992h-7.6054zm61.333 0h7.6053v52.992h-7.6053zm-1349.3 61.333h7.6053v52.992h-7.6053zm22.08 0h7.728l17.173 52.992h-7.7893zm28.152 46.429h29.685v6.5627h-29.685zm40.909 6.5627h-7.8507l17.173-52.992h7.728zm31.525-52.992h7.6053v52.992h-7.6053zm80.899 46.429h29.685v6.5627h-29.685zm30.667 0h29.685v6.5627h-29.685zm61.333 0h29.685v6.5627h-29.685zm72.435-46.429h7.6053v52.992h-7.6053zm61.333 0h7.6053v52.992h-7.6053zm19.565 46.429h29.685v6.5627h-29.685zm92 0h29.685v6.5627h-29.685zm30.667 0h29.685v6.5627h-29.685zm30.667 0h29.685v6.5627h-29.685zm92 0h29.685v6.5627h-29.685zm61.333 0h29.685v6.5627h-29.685zm30.667 0h29.685v6.5627h-29.685zm153.33 0h29.685v6.5627h-29.685zm30.667 0h29.685v6.5627h-29.685zm30.667 0h29.685v6.5627h-29.685zm122.67 0h29.685v6.5627h-29.685zm30.667 0h29.685v6.5627h-29.685zm61.333 0h29.685v6.5627h-29.685zm72.435-46.429h7.6054v52.992h-7.6054zm61.333 0h7.6053v52.992h-7.6053zm50.232 46.429h29.685v6.5627h-29.685zm30.667 0h29.685v6.5627h-29.685zm-1431.1 67.896h-7.8507l17.173-52.992h7.728zm51.091-6.5627h29.685v6.5627h-29.685zm30.667 0h29.685v6.5627h-29.685zm41.768-46.429h7.6053v52.992h-7.6053zm60.475 52.992h-7.8507l17.173-52.992h7.728zm51.091-6.5627h29.685v6.5627h-29.685zm43.24-45.939 9.6907 6.808-2.76 4.1093-10.672-5.152zm59.861-0.49067h7.6053v52.992h-7.6053zm30.667 0h7.6053v52.992h-7.6053zm50.232 46.429h29.685v6.5627h-29.685zm30.667 0h29.685v6.5627h-29.685zm41.768-46.429h7.6053v52.992h-7.6053zm29.808 52.992h-7.8507l17.173-52.992h7.728zm51.091-6.5627h29.685v6.5627h-29.685zm30.667 0h29.685v6.5627h-29.685zm41.768-46.429h7.6053v52.992h-7.6053zm30.667 0h7.6053v52.992h-7.6053zm69.184 1.2267v4.048c0 1.0222-0.0613 2.1467-0.184 3.3733-0.0818 1.1858-0.22488 2.4124-0.42933 3.68-0.16355 1.2676-0.34755 2.5351-0.552 3.8027-0.20445 1.2267-0.40889 2.3716-0.61333 3.4347h-4.416c-0.20445-1.0631-0.40889-2.208-0.61333-3.4347l-0.61334-3.8027c-0.16355-1.2676-0.30666-2.4942-0.42933-3.68-0.12267-1.2267-0.184-2.3511-0.184-3.3733v-4.048zm11.715 45.203h29.685v6.5627h-29.685zm63.848-46.429h7.728l17.173 52.992h-7.7893zm99.728 52.992h-7.8507l17.173-52.992h7.728zm51.091-6.5627h29.685v6.5627h-29.685zm63.848-46.429h7.728l17.173 52.992h-7.7894zm69.061 52.992h-7.8507l17.173-52.992h7.728zm51.091-6.5627h29.685v6.5627h-29.685zm43.24-45.939 9.6907 6.808-2.76 4.1093-10.672-5.152zm59.861-0.49067h7.6054v52.992h-7.6054zm30.667 0h7.6054v52.992h-7.6054zm61.333 0h7.6053v52.992h-7.6053zm29.808 52.992h-7.8507l17.173-52.992h7.728zm61.333 0h-7.8506l17.173-52.992h7.728zm-1471.1 8.3413h7.6053v52.992h-7.6053zm62.499 26.557c0 5.0293 1.104 9.4044 3.312 13.125 2.2489 3.68 5.336 6.6649 9.2613 8.9547l-3.496 4.6613c-5.5609-3.0667-9.6293-6.8898-12.205-11.469s-3.864-9.6702-3.864-15.272c0-5.6427 1.3289-10.815 3.9867-15.517 2.6578-4.7431 6.7671-8.648 12.328-11.715l3.496 4.6613c-3.9253 2.2898-7.0533 5.3564-9.384 9.2-2.2898 3.8436-3.4347 8.3004-3.4347 13.371zm18.4 19.872h29.685v6.5627h-29.685zm30.667 0h29.685v6.5627h-29.685zm72.435-46.429h7.6053v52.992h-7.6053zm62.499 26.557c0 5.0293 1.104 9.4044 3.312 13.125 2.2489 3.68 5.336 6.6649 9.2613 8.9547l-3.496 4.6613c-5.5609-3.0667-9.6293-6.8898-12.205-11.469s-3.864-9.6702-3.864-15.272c0-5.6427 1.3289-10.815 3.9867-15.517 2.6578-4.7431 6.7671-8.648 12.328-11.715l3.496 4.6613c-3.9253 2.2898-7.0533 5.3564-9.384 9.2-2.2898 3.8436-3.4347 8.3004-3.4347 13.371zm18.4 19.872h29.685v6.5627h-29.685zm41.768-46.429h7.6053v52.992h-7.6053zm61.333 0h7.6053v52.992h-7.6053zm30.667 0h7.6053v52.992h-7.6053zm61.333 0h7.6053v52.992h-7.6053zm19.565 46.429h29.685v6.5627h-29.685zm63.848-46.429h7.728l17.173 52.992h-7.7893zm28.152 46.429h29.685v6.5627h-29.685zm30.667 0h29.685v6.5627h-29.685zm63.848-46.429h7.728l17.173 52.992h-7.7893zm39.253 0h7.6053v52.992h-7.6053zm61.333 0h7.6053v52.992h-7.6053zm19.565 46.429h29.685v6.5627h-29.685zm48.208-19.872c0-5.0702-1.1653-9.5271-3.496-13.371-2.2898-3.8436-5.3973-6.9102-9.3227-9.2l3.496-4.6613c5.5609 3.0667 9.6702 6.9716 12.328 11.715 2.6578 4.7022 3.9867 9.8747 3.9867 15.517 0 5.6018-1.288 10.692-3.864 15.272s-6.6444 8.4027-12.205 11.469l-3.496-4.6613c3.9253-2.2898 6.992-5.2747 9.2-8.9547 2.2489-3.7209 3.3733-8.096 3.3733-13.125zm54.893-26.557h7.6053v52.992h-7.6053zm30.667 0h7.6054v52.992h-7.6054zm80.899 46.429h29.685v6.5627h-29.685zm30.667 0h29.685v6.5627h-29.685zm40.909 6.5627h-7.8506l17.173-52.992h7.728zm31.525-52.992h7.6054v52.992h-7.6054zm62.499 26.557c0 5.0293 1.104 9.4044 3.312 13.125 2.2489 3.68 5.3361 6.6649 9.2614 8.9547l-3.496 4.6613c-5.5609-3.0667-9.6294-6.8898-12.205-11.469s-3.864-9.6702-3.864-15.272c0-5.6427 1.3289-10.815 3.9867-15.517 2.6578-4.7431 6.7671-8.648 12.328-11.715l3.496 4.6613c-3.9253 2.2898-7.0533 5.3564-9.384 9.2-2.2898 3.8436-3.4347 8.3004-3.4347 13.371zm18.4 19.872h29.685v6.5627h-29.685zm41.768-46.429h7.6054v52.992h-7.6054zm61.333 0h7.6054v52.992h-7.6054zm30.667 0h7.6054v52.992h-7.6054zm113.83 23.675 23.552-9.8747 2.0853 6.624-17.173 6.6853 17.173 6.6853-2.0853 6.624-23.552-9.936zm-1410.4 37.659h7.728l17.173 52.992h-7.7893zm28.152 46.429h29.685v6.5627h-29.685zm30.667 0h29.685v6.5627h-29.685zm30.667 0h29.685v6.5627h-29.685zm41.768-46.429h7.6053v52.992h-7.6053zm52.747 0h7.728l17.173 52.992h-7.7893zm28.152 46.429h29.685v6.5627h-29.685zm30.667 0h29.685v6.5627h-29.685zm37.904 0.92c0.736-0.16355 1.472-0.30666 2.208-0.42933 0.77689-0.12267 1.4924-0.30667 2.1467-0.552 0.69511-0.24533 1.3084-0.59289 1.84-1.0427s0.96089-1.0631 1.288-1.84c-1.5538-0.16355-2.76-0.77689-3.6187-1.84-0.85867-1.0631-1.288-2.2489-1.288-3.5573 0-1.5947 0.51111-2.9031 1.5333-3.9253 1.0631-1.0222 2.392-1.5333 3.9867-1.5333 1.7173 0 3.0462 0.57244 3.9867 1.7173 0.98133 1.1449 1.472 2.6987 1.472 4.6613 0 1.4311-0.22489 2.8622-0.67467 4.2933s-1.1858 2.76-2.208 3.9867c-0.98133 1.2267-2.2693 2.2898-3.864 3.1893-1.5947 0.89955-3.5369 1.4924-5.8267 1.7787zm23.429-0.92h29.685v6.5627h-29.685zm41.768-46.429h7.6053v52.992h-7.6053zm52.747 0h7.728l17.173 52.992h-7.7893zm28.152 46.429h29.685v6.5627h-29.685zm30.667 0h29.685v6.5627h-29.685zm41.768-46.429h7.6053v52.992h-7.6053zm30.667 0h7.6053v52.992h-7.6053zm19.565 46.429h29.685v6.5627h-29.685zm30.667 0h29.685v6.5627h-29.685zm30.667 0h29.685v6.5627h-29.685zm40.909 6.5627h-7.8507l17.173-52.992h7.728zm31.525-52.992h7.6053v52.992h-7.6053zm70.595 38.027c0 1.7991-0.552 3.1689-1.656 4.1093-1.104 0.94044-2.3716 1.4107-3.8027 1.4107-0.736 0-1.4311-0.12267-2.0853-0.368-0.65422-0.24533-1.2471-0.59289-1.7787-1.0427-0.49067-0.49067-0.89956-1.0631-1.2267-1.7173-0.28622-0.69511-0.42933-1.4924-0.42933-2.392 0-0.85867 0.14311-1.6151 0.42933-2.2693 0.32711-0.69511 0.736-1.2676 1.2267-1.7173 0.53155-0.44977 1.1244-0.79733 1.7787-1.0427 0.65423-0.24533 1.3493-0.368 2.0853-0.368 1.4311 0 2.6987 0.47022 3.8027 1.4107 1.104 0.94045 1.656 2.2693 1.656 3.9867zm10.304 8.4027h29.685v6.5627h-29.685zm30.667 0h29.685v6.5627h-29.685zm40.909 6.5627h-7.8507l17.173-52.992h7.728zm84.272-52.992h7.728l17.173 52.992h-7.7893zm28.152 46.429h29.685v6.5627h-29.685zm30.667 0h29.685v6.5627h-29.685zm30.667 0h29.685v6.5627h-29.685zm41.768-46.429h7.6053v52.992h-7.6053zm52.747 0h7.728l17.173 52.992h-7.7893zm28.152 46.429h29.685v6.5627h-29.685zm30.667 0h29.685v6.5627h-29.685zm37.904 0.92c0.736-0.16355 1.472-0.30666 2.208-0.42933 0.7769-0.12267 1.4925-0.30667 2.1467-0.552 0.6951-0.24533 1.3085-0.59289 1.84-1.0427s0.9609-1.0631 1.288-1.84c-1.5538-0.16355-2.76-0.77689-3.6187-1.84s-1.288-2.2489-1.288-3.5573c0-1.5947 0.5111-2.9031 1.5334-3.9253 1.0631-1.0222 2.3919-1.5333 3.9866-1.5333 1.7173 0 3.0462 0.57244 3.9867 1.7173 0.9813 1.1449 1.472 2.6987 1.472 4.6613 0 1.4311-0.2249 2.8622-0.6747 4.2933-0.4497 1.4311-1.1857 2.76-2.208 3.9867-0.9813 1.2267-2.2693 2.2898-3.864 3.1893-1.5947 0.89955-3.5369 1.4924-5.8266 1.7787zm23.429-0.92h29.685v6.5627h-29.685zm41.768-46.429h7.6054v52.992h-7.6054zm30.667 0h7.6054v52.992h-7.6054zm19.565 46.429h29.685v6.5627h-29.685zm41.768-46.429h7.6053v52.992h-7.6053zm22.08 0h7.728l17.173 52.992h-7.7893zm28.152 46.429h29.685v6.5627h-29.685zm33.181-46.429h7.728l17.173 52.992h-7.7894zm-922.51 107.76h29.685v6.5627h-29.685zm30.667 0h29.685v6.5627h-29.685zm30.667 0h29.685v6.5627h-29.685zm30.667 0h29.685v6.5627h-29.685zm30.667 0h29.685v6.5627h-29.685zm41.768-46.429h7.6053v52.992h-7.6053zm61.333 0h7.6053v52.992h-7.6053zm-246.19 114.33h-7.8507l17.173-52.992h7.728zm71.453-14.965c0 1.7991-0.552 3.1689-1.656 4.1093-1.104 0.94045-2.3716 1.4107-3.8027 1.4107-0.736 0-1.4311-0.12267-2.0853-0.368-0.65423-0.24533-1.2471-0.59289-1.7787-1.0427-0.49067-0.49067-0.89956-1.0631-1.2267-1.7173-0.28622-0.69511-0.42933-1.4924-0.42933-2.392 0-0.85867 0.14311-1.6151 0.42933-2.2693 0.32711-0.69511 0.736-1.2676 1.2267-1.7173 0.53155-0.44978 1.1244-0.79734 1.7787-1.0427 0.65422-0.24533 1.3493-0.368 2.0853-0.368 1.4311 0 2.6987 0.47022 3.8027 1.4107 1.104 0.94044 1.656 2.2693 1.656 3.9867zm10.304 8.4027h29.685v6.5627h-29.685zm30.667 0h29.685v6.5627h-29.685zm30.667 0h29.685v6.5627h-29.685zm30.667 0h29.685v6.5627h-29.685zm30.667 0h29.685v6.5627h-29.685zm40.909 6.5627h-7.8507l17.173-52.992h7.728zm-253.06 8.3413h7.728l17.173 52.992h-7.7893zm28.152 46.429h29.685v6.5627h-29.685zm48.208-19.872c0-5.0702-1.1653-9.5271-3.496-13.371-2.2898-3.8436-5.3973-6.9102-9.3227-9.2l3.496-4.6613c5.5609 3.0667 9.6702 6.9716 12.328 11.715 2.6578 4.7022 3.9867 9.8747 3.9867 15.517 0 5.6018-1.288 10.692-3.864 15.272s-6.6444 8.4027-12.205 11.469l-3.496-4.6613c3.9253-2.2898 6.992-5.2747 9.2-8.9547 2.2489-3.7209 3.3733-8.096 3.3733-13.125z" fill="#526666"/>
</svg>
